<svg x="0px" y="0px" width="128px" height="128px" viewBox="0 0 128 128" enable-background="new 0 0 128 128" xml:space="preserve">
	<g id="fill">
		<path fill="#333333" d="M128,87.11v12.67l-13.2-6.72c-1.23-0.09-2.46-0.07-3.69,0.04c-1.15,0.1-2.29,0.28-3.42,0.53
			c-1.08,0.24-2.14,0.53-3.2,0.85c-1.73,0.54-3.44,1.16-5.17,1.73c-0.73,0.25-1.47,0.48-2.22,0.69c-1.76,0.49-3.55,0.85-5.36,1.13
			c-1.22,0.19-2.45,0.34-3.68,0.46c-1.25,0.13-2.51,0.22-3.77,0.29c-2.54,0.15-5.07,0.2-7.61,0.16c-1.63-0.03-3.26-0.09-4.89-0.19
			c-1.43-0.09-2.86-0.21-4.28-0.37c-1.38-0.16-2.76-0.35-4.12-0.59c-1.31-0.23-2.61-0.5-3.9-0.82c-1.37-0.34-2.73-0.73-4.07-1.17
			c-1.11-0.36-2.21-0.77-3.28-1.24c-0.49-0.21-0.97-0.45-1.44-0.7c-0.33-0.18-0.66-0.37-0.97-0.57c-0.29-0.19-0.58-0.39-0.85-0.6
			c-0.25-0.21-0.49-0.42-0.71-0.65c3.97-0.41,10.95-1.92,13.76-5.65c0.3,0.17,0.6,0.34,0.91,0.5c0.87,0.45,1.77,0.87,2.69,1.23
			c1.25,0.5,2.55,0.89,3.86,1.21c1.45,0.34,2.92,0.59,4.4,0.75c1.57,0.16,3.14,0.23,4.71,0.2c1.16-0.01,2.31-0.08,3.46-0.21
			c1.1-0.12,2.19-0.29,3.27-0.52c1-0.22,2-0.49,2.99-0.78c0.43-0.13,0.86-0.26,1.29-0.4c1.1-0.35,2.19-0.72,3.29-1.07
			c0.61-0.18,1.21-0.36,1.82-0.52c0.78-0.21,1.57-0.4,2.36-0.56c0.03-0.01,0.06-0.01,0.09-0.02c1.03-0.22,2.07-0.41,3.11-0.58
			L26.91,48.34c3.89-0.43,9.06-1.46,12.57-3.48l1.63,0.78l33.54,16.01c0.25-0.31,0.55-0.58,0.87-0.82c0.41-0.3,0.85-0.56,1.31-0.79
			s0.93-0.43,1.4-0.63c0.86-0.35,1.73-0.67,2.59-1.01c0.34-0.14,0.69-0.28,1.03-0.43c0.33-0.14,0.65-0.29,0.97-0.44
			c0.3-0.15,0.59-0.3,0.87-0.47c0.44-0.26,0.86-0.56,1.23-0.91c0.34-0.32,0.64-0.68,0.85-1.09c0.05-0.1,0.09-0.19,0.13-0.29
			c0.07-0.16,0.12-0.33,0.15-0.5c0.05-0.25,0.07-0.52,0.04-0.78c-0.04-0.27-0.12-0.53-0.23-0.77c-0.11-0.23-0.25-0.44-0.41-0.64
			c-0.21-0.26-0.45-0.5-0.71-0.71c-0.29-0.25-0.6-0.47-0.92-0.68c-0.36-0.23-0.74-0.45-1.13-0.65c-0.57-0.29-1.15-0.57-1.73-0.83
			c2.69-0.18,8.39-0.93,10.53-3.3c0.21,0.07,0.43,0.15,0.64,0.23c0.63,0.21,1.26,0.45,1.88,0.71c0.67,0.28,1.33,0.59,1.97,0.95
			c0.52,0.29,1.03,0.63,1.5,1c0.43,0.34,0.83,0.72,1.19,1.12c0.36,0.42,0.69,0.88,0.97,1.36c0.28,0.49,0.51,1.02,0.66,1.57
			c0.13,0.46,0.21,0.95,0.21,1.43c0,0.12,0,0.24-0.01,0.36v0.09c-0.03,0.34-0.09,0.67-0.17,0.99c-0.12,0.44-0.29,0.87-0.5,1.27
			c-0.19,0.38-0.41,0.75-0.66,1.09c-0.57,0.81-1.27,1.52-2.04,2.13c-0.72,0.57-1.5,1.05-2.32,1.46c-0.42,0.21-0.84,0.41-1.27,0.59
			c-1.14,0.49-2.3,0.92-3.43,1.43c-0.32,0.14-0.64,0.29-0.96,0.45c-0.3,0.15-0.59,0.31-0.87,0.49c-0.28,0.17-0.56,0.36-0.81,0.56
			c-0.23,0.19-0.45,0.39-0.65,0.61c-0.18,0.19-0.34,0.41-0.47,0.64c-0.12,0.2-0.22,0.43-0.28,0.66l0.99,0.47L128,87.11z"/>
		<polygon fill="#CCCCCC" points="128,99.78 128,102.19 114.69,95.34 114.8,93.06 			"/>
		<path fill="#CCCCCC" d="M114.8,93.06l-0.11,2.28c-1.22-0.09-2.45-0.07-3.68,0.04c-1.14,0.1-2.29,0.28-3.41,0.53
			c-1.08,0.24-2.14,0.54-3.19,0.86c-1.73,0.54-3.43,1.17-5.15,1.75c-0.73,0.24-1.47,0.48-2.21,0.69c-1.75,0.49-3.54,0.86-5.35,1.14
			c-1.21,0.19-2.44,0.34-3.67,0.46c-1.25,0.13-2.5,0.23-3.76,0.3c-2.52,0.15-5.05,0.19-7.58,0.15c-1.63-0.02-3.25-0.08-4.88-0.19
			c-1.42-0.09-2.84-0.21-4.26-0.37c-1.37-0.16-2.75-0.35-4.11-0.59c-1.3-0.24-2.6-0.51-3.89-0.83c-1.36-0.34-2.72-0.73-4.05-1.18
			c-1.11-0.37-2.21-0.77-3.27-1.25c-0.49-0.22-0.97-0.45-1.44-0.7c-0.33-0.18-0.65-0.37-0.96-0.58c-0.29-0.19-0.58-0.39-0.85-0.61
			c-0.25-0.2-0.49-0.42-0.71-0.65l-0.1-2.27c0.22,0.23,0.46,0.44,0.71,0.65c0.27,0.21,0.56,0.41,0.85,0.6
			c0.31,0.2,0.64,0.39,0.97,0.57c0.47,0.25,0.95,0.49,1.44,0.7c1.07,0.47,2.17,0.88,3.28,1.24c1.34,0.44,2.7,0.83,4.07,1.17
			c1.29,0.32,2.59,0.59,3.9,0.82c1.36,0.24,2.74,0.43,4.12,0.59c1.42,0.16,2.85,0.28,4.28,0.37c1.63,0.1,3.26,0.16,4.89,0.19
			c2.54,0.04,5.07-0.01,7.61-0.16c1.26-0.07,2.52-0.16,3.77-0.29c1.23-0.12,2.46-0.27,3.68-0.46c1.81-0.28,3.6-0.64,5.36-1.13
			c0.75-0.21,1.49-0.44,2.22-0.69c1.73-0.57,3.44-1.19,5.17-1.73c1.06-0.32,2.12-0.61,3.2-0.85c1.13-0.25,2.27-0.43,3.42-0.53
			C112.34,92.99,113.57,92.97,114.8,93.06z"/>
		<path fill="#CCCCCC" d="M100.5,54.73l-0.04,1.62c-0.05,3.14-2.81,5.75-5.23,7.08c-1.93,1.07-6.45,2.48-8.17,4.14l-0.99-0.47
			c0.06-0.23,0.16-0.46,0.28-0.66c0.13-0.23,0.29-0.45,0.47-0.64c0.2-0.22,0.42-0.42,0.65-0.61c0.25-0.2,0.53-0.39,0.81-0.56
			c0.28-0.18,0.57-0.34,0.87-0.49c0.32-0.16,0.64-0.31,0.96-0.45c1.13-0.51,2.29-0.94,3.43-1.43c0.43-0.18,0.85-0.38,1.27-0.59
			c0.82-0.41,1.6-0.89,2.32-1.46c0.77-0.61,1.47-1.32,2.04-2.13c0.25-0.34,0.47-0.71,0.66-1.09c0.21-0.4,0.38-0.83,0.5-1.27
			C100.41,55.4,100.47,55.07,100.5,54.73z"/>
		<path fill="#CCCCCC" d="M26.91,48.34l73.27,37.28c-1.04,0.17-2.08,0.36-3.11,0.58c-0.03,0.01-0.06,0.01-0.09,0.02L27.04,50.21
			L26.91,48.34z"/>
		<path fill="#66CC66" d="M91.58,41.13c0.42,0.48,0.63,0.98,0.61,1.49c-0.02,0.42-0.19,0.85-0.53,1.27
			c-0.93,1.14-2.64,1.82-3.92,2.24c-4.48,1.44-10.55,1.56-15.11,0.77c-1.49-0.26-2.92-0.61-4.33-1.2c-0.98-0.41-1.87-0.85-2.6-1.68
			c-0.36-0.42-0.57-0.86-0.6-1.3c-0.04-0.49,0.14-1,0.54-1.49c0.93-1.12,2.62-1.79,3.9-2.21c4.47-1.44,10.55-1.56,15.1-0.77
			c1.46,0.26,2.88,0.6,4.26,1.17C89.91,39.83,90.82,40.27,91.58,41.13z M83.99,44.28c1.17-0.43,2.79-1.33,1.78-2.56
			c-0.84-1.02-2.66-1.41-3.78-1.61c-2.5-0.45-5.82-0.39-8.28,0.39c-1.15,0.36-3.34,1.32-2.2,2.71c0.43,0.51,1.09,0.87,1.79,1.12
			c0.69,0.25,1.42,0.39,1.99,0.49c2.5,0.45,5.82,0.39,8.28-0.39C83.7,44.39,83.84,44.34,83.99,44.28z"/>
		<path fill="#CCCCCC" d="M92.19,42.62l-0.06,3.51v0.01c-0.21-0.08-0.43-0.16-0.64-0.23c-2.14,2.37-7.84,3.12-10.53,3.3v1.88
			c-2.95,0.19-5.81,0.06-8.72-0.5c-1.44-0.29-2.83-0.66-4.18-1.28c-1.05-0.48-2.87-1.51-2.9-3l-0.07-3.59h0.01
			c0.03,0.44,0.24,0.88,0.6,1.3c0.73,0.83,1.62,1.27,2.6,1.68c1.41,0.59,2.84,0.94,4.33,1.2c4.56,0.79,10.63,0.67,15.11-0.77
			c1.28-0.42,2.99-1.1,3.92-2.24C92,43.47,92.17,43.04,92.19,42.62z"/>
		<path fill="#CCCCCC" d="M86.09,53.49c0.03,0.26,0.01,0.53-0.04,0.78c-0.03,0.17-0.08,0.34-0.15,0.5
			c-0.71-1.77-3.52-3.02-4.94-3.68v-1.88c0.58,0.26,1.16,0.54,1.73,0.83c0.39,0.2,0.77,0.42,1.13,0.65
			c0.32,0.21,0.63,0.43,0.92,0.68c0.26,0.21,0.5,0.45,0.71,0.71c0.16,0.2,0.3,0.41,0.41,0.64C85.97,52.96,86.05,53.22,86.09,53.49z
			"/>
		<path fill="#CCCCCC" d="M85.77,41.72c1.01,1.23-0.61,2.13-1.78,2.56c-2.92-1.11-7.78-1.09-10.69,0.02v0.03
			c-0.7-0.25-1.36-0.61-1.79-1.12c-1.14-1.39,1.05-2.35,2.2-2.71c2.46-0.78,5.78-0.84,8.28-0.39
			C83.11,40.31,84.93,40.7,85.77,41.72z"/>
		<path fill="#CCCCCC" d="M62.95,85.89c0.01,0.34-0.03,0.67-0.11,1c-0.31-0.16-0.61-0.33-0.91-0.5c-2.81,3.73-9.79,5.24-13.76,5.65
			l0.1,2.27c-3.77,0.39-7.38,0.28-11.1-0.57c-1.84-0.42-3.57-0.99-5.21-1.96c-1.47-0.86-3.15-2.29-3.29-4.24l-0.3-4.26
			c0.32,2.33,3,4.51,7.8,5.74c6.1,1.55,14.15,1.15,20.04-1.13c4.48-1.73,6.63-4.05,6.64-6.29L62.95,85.89z"/>
		<path fill="#66CC66" d="M55.02,75.38c5.13,1.31,7.83,3.71,7.83,6.22c-0.01,2.24-2.16,4.56-6.64,6.29
			c-5.89,2.28-13.94,2.68-20.04,1.13c-4.8-1.23-7.48-3.41-7.8-5.74c0-0.04-0.01-0.08-0.01-0.12c-0.23-2.34,1.89-4.82,6.62-6.65
			C40.87,74.24,48.92,73.83,55.02,75.38z M53.8,83.81c2.44-1.95,1.38-4.42-2.91-5.54c-3.33-0.87-7.74-0.66-10.97,0.56
			c-4.12,1.55-4.78,4.07-2.22,5.74c0.67,0.44,1.57,0.83,2.68,1.12c3.33,0.87,7.74,0.66,10.98-0.56
			C52.39,84.74,53.2,84.29,53.8,83.81z"/>
		<path fill="#CCCCCC" d="M50.89,78.27c4.29,1.12,5.35,3.59,2.91,5.54c-3.79-2.6-12.57-2.19-16.1,0.76
			c-2.56-1.67-1.9-4.19,2.22-5.74C43.15,77.61,47.56,77.4,50.89,78.27z"/>
		<path fill="#CCCCCC" d="M42.69,42.77c0.06,1.19-0.79,2.19-1.58,2.87l-1.63-0.78c-3.51,2.02-8.68,3.05-12.57,3.48l0.13,1.87
			c-4.06,0.45-8.04,0.48-12.1-0.06c-2.02-0.28-3.98-0.67-5.9-1.39c-1.46-0.55-4.14-1.79-4.35-3.82l-0.36-3.65
			c0.15,1.38,1.48,2.33,2.51,2.9c2.02,1.12,4.13,1.6,6.36,1.98c6.5,1.11,14.86,0.66,21.2-1.17c1.99-0.57,8.12-2.57,8.12-5.71h0.01
			L42.69,42.77z"/>
		<path fill="#66CC66" d="M42.51,39.05c0.01,0.08,0.01,0.16,0.01,0.24c0,3.14-6.13,5.14-8.12,5.71c-6.34,1.83-14.7,2.28-21.2,1.17
			c-2.23-0.38-4.34-0.86-6.36-1.98c-1.03-0.57-2.36-1.52-2.51-2.9v-0.01c-0.33-3.26,6.07-5.37,8.1-5.96
			c6.34-1.82,14.71-2.27,21.21-1.17c2.17,0.37,4.23,0.85,6.21,1.91C40.92,36.63,42.37,37.6,42.51,39.05z M33.96,39.46
			c0.01-1.8-3.6-2.58-4.74-2.78c-3.56-0.63-8.14-0.39-11.62,0.59c-1.13,0.32-4.56,1.39-4.56,3.17c0,0.81,0.7,1.41,1.59,1.83
			c1.11,0.55,2.51,0.84,3.15,0.95c3.56,0.63,8.14,0.39,11.62-0.58c0.68-0.19,2.18-0.65,3.27-1.38
			C33.41,40.78,33.96,40.18,33.96,39.46z"/>
		<path fill="#CCCCCC" d="M29.22,36.68c1.14,0.2,4.75,0.98,4.74,2.78c0,0.72-0.55,1.32-1.29,1.8l-0.01-0.01
			c-4.14-2.18-14.15-1.66-18.03,1.02c-0.89-0.42-1.59-1.02-1.59-1.83c0-1.78,3.43-2.85,4.56-3.17
			C21.08,36.29,25.66,36.05,29.22,36.68z"/>
	</g>
</svg>
